<?xml version="1.0" encoding="UTF-8" standalone="no"?>
<svg
   xmlns:dc="http://purl.org/dc/elements/1.1/"
   xmlns:cc="http://creativecommons.org/ns#"
   xmlns:rdf="http://www.w3.org/1999/02/22-rdf-syntax-ns#"
   xmlns:svg="http://www.w3.org/2000/svg"
   xmlns="http://www.w3.org/2000/svg"
   xmlns:sodipodi="http://sodipodi.sourceforge.net/DTD/sodipodi-0.dtd"
   xmlns:inkscape="http://www.inkscape.org/namespaces/inkscape"
   inkscape:version="1.0 (4035a4fb49, 2020-05-01)"
   sodipodi:docname="triangle-down-red.svg"
   viewBox="0 0 1280 747"
   height="747"
   width="1280"
   id="svg10"
   version="1.1">
  <metadata
     id="metadata16">
    <rdf:RDF>
      <cc:Work
         rdf:about="">
        <dc:format>image/svg+xml</dc:format>
        <dc:type
           rdf:resource="http://purl.org/dc/dcmitype/StillImage" />
        <dc:title></dc:title>
      </cc:Work>
    </rdf:RDF>
  </metadata>
  <defs
     id="defs14">
    <clipPath
       id="clipPath851"
       clipPathUnits="userSpaceOnUse">
      <rect
         ry="69.505714"
         y="175.66434"
         x="261.81818"
         height="434.12589"
         width="751.88806"
         id="rect853"
         style="opacity:0.996;fill:none;stroke:none;stroke-width:3.75857" />
    </clipPath>
  </defs>
  <sodipodi:namedview
     inkscape:current-layer="g18"
     inkscape:window-maximized="1"
     inkscape:window-y="-8"
     inkscape:window-x="-8"
     inkscape:cy="373.5"
     inkscape:cx="580.13986"
     inkscape:zoom="0.89375"
     showgrid="false"
     id="namedview12"
     inkscape:window-height="1027"
     inkscape:window-width="1920"
     inkscape:pageshadow="2"
     inkscape:pageopacity="0"
     guidetolerance="10"
     gridtolerance="10"
     objecttolerance="10"
     borderopacity="1"
     bordercolor="#666666"
     pagecolor="#ffffff" />
  <g
     id="g18"
     inkscape:label="Image"
     inkscape:groupmode="layer">
    <path
       clip-path="url(#clipPath851)"
       id="path22"
       d="m 627.26224,605.37245 c -7.41461,-1.54418 -11.82952,-3.06633 -17.7546,-6.12133 -6.18669,-3.1899 -20.28269,-17.07388 -167.65763,-165.13577 C 353.35334,345.20616 279.09064,270.22549 276.8218,267.49163 c -13.61891,-16.41021 -15.93083,-40.47655 -5.76107,-59.97066 4.14008,-7.936 14.66879,-18.32814 22.56832,-22.27558 17.45687,-8.7233 38.26488,-7.67534 53.78312,2.7087 3.69703,2.47386 58.08555,56.47992 147.77993,146.74073 78.06142,78.55438 142.2363,142.82615 142.61085,142.82615 0.37455,0 64.53111,-64.27045 142.57014,-142.82322 95.16751,-95.79401 143.86485,-144.12393 147.88915,-146.77332 15.79824,-10.40076 36.08895,-11.40694 53.70814,-2.66328 7.90705,3.92392 18.24692,14.1606 22.48432,22.25982 10.2213,19.53667 7.8648,43.46157 -5.92576,60.16334 -2.19645,2.66016 -76.38131,77.56253 -164.85521,166.44969 -148.42933,149.12265 -161.40401,161.89804 -167.8793,165.30071 -3.85971,2.02822 -10.05842,4.33204 -13.77492,5.1196 -6.26416,1.32744 -20.11411,1.78512 -24.75727,0.81814 z"
       style="fill:#aa0000" />
    <rect
       y="107.41259"
       x="226.01399"
       height="522.51746"
       width="833.56641"
       id="rect24"
       style="opacity:0.996;fill:none;stroke:none;stroke-width:3.77953" />
  </g>
</svg>
